<svg width="456" height="151" viewBox="0 0 456 151" fill="none" xmlns="http://www.w3.org/2000/svg">
<g clip-path="url(#clip0_301_24)">
<path d="M0.628418 150.592V66.5107C0.628418 30.1209 30.0156 0.630615 66.2782 0.630615H389.722C425.972 0.630615 455.372 30.1209 455.372 66.5107V150.592" fill="#BFCEFE"/>
<path d="M27.3295 150.592V69.9605C27.3295 46.3065 46.4404 27.1162 70.024 27.1162H109.564C112.3 27.1162 114.518 29.3419 114.518 32.0869V36.3281C114.518 48.4456 124.301 58.2634 136.376 58.2634H319.92C331.995 58.2634 341.778 48.4456 341.778 36.3281V32.0869C341.778 29.3419 343.996 27.1162 346.732 27.1162H388.342C411.913 27.1162 431.036 46.2942 431.036 69.9605V150.592H27.3295Z" fill="#EFF3FF"/>
<rect x="194" y="21.0017" width="68" height="12" rx="6" fill="white"/>
<rect x="34" y="68.0017" width="390" height="76" rx="8" fill="white"/>
<circle cx="280" cy="27" r="6" fill="white"/>
</g>
<defs>
<clipPath id="clip0_301_24">
<rect width="456" height="151" fill="white"/>
</clipPath>
</defs>
</svg>
