<svg width="40" height="40" viewBox="0 0 40 40" fill="none" xmlns="http://www.w3.org/2000/svg">
<rect x="0.000610352" y="0.501709" width="39.9994" height="39" rx="4" fill="#BFCEFE"/>
<path d="M24.5002 15.5017C25.1924 15.5017 25.8691 15.2964 26.4447 14.9119C27.0203 14.5273 27.4689 13.9806 27.7338 13.3411C27.9987 12.7016 28.068 11.9978 27.933 11.3189C27.7979 10.64 27.4646 10.0163 26.9751 9.52684C26.4856 9.03735 25.862 8.70401 25.183 8.56896C24.5041 8.43391 23.8004 8.50323 23.1608 8.76813C22.5213 9.03304 21.9746 9.48164 21.5901 10.0572C21.2055 10.6328 21.0002 11.3095 21.0002 12.0017C21.0002 12.93 21.369 13.8202 22.0253 14.4766C22.6817 15.133 23.572 15.5017 24.5002 15.5017ZM24.5002 10.5017C24.7969 10.5017 25.0869 10.5897 25.3336 10.7545C25.5802 10.9193 25.7725 11.1536 25.886 11.4277C25.9996 11.7018 26.0293 12.0034 25.9714 12.2943C25.9135 12.5853 25.7706 12.8526 25.5609 13.0624C25.3511 13.2721 25.0838 13.415 24.7928 13.4729C24.5019 13.5308 24.2003 13.5011 23.9262 13.3875C23.6521 13.274 23.4178 13.0817 23.253 12.8351C23.0882 12.5884 23.0002 12.2984 23.0002 12.0017C23.0002 11.6039 23.1582 11.2224 23.4395 10.9411C23.7209 10.6597 24.1024 10.5017 24.5002 10.5017ZM35.8602 29.9917L29.0402 18.4817C28.8643 18.1819 28.6127 17.9335 28.3106 17.7615C28.0086 17.5895 27.6666 17.4999 27.319 17.5017C26.9715 17.4999 26.6297 17.5895 26.3278 17.7615C26.0259 17.9335 25.7745 18.1819 25.599 18.4817L22.329 24.0017L16.724 14.4892C16.5473 14.189 16.2954 13.9402 15.9931 13.7673C15.6907 13.5944 15.3485 13.5035 15.0002 13.5035C14.6519 13.5035 14.3097 13.5944 14.0074 13.7673C13.705 13.9402 13.4531 14.189 13.2765 14.4892L4.13896 29.9942C4.04952 30.1461 4.0018 30.3189 4.00063 30.4951C3.99947 30.6713 4.0449 30.8447 4.13232 30.9978C4.21975 31.1508 4.34606 31.278 4.49847 31.3665C4.65088 31.455 4.82397 31.5016 5.00021 31.5017H35.0002C35.1767 31.5017 35.3501 31.4549 35.5027 31.3662C35.6552 31.2775 35.7816 31.15 35.869 30.9966C35.9563 30.8432 36.0015 30.6695 36 30.493C35.9985 30.3165 35.9502 30.1435 35.8602 29.9917ZM15.0002 15.5017L17.9465 20.5017H12.054L15.0002 15.5017ZM6.75021 29.5017L10.8752 22.5017H19.1252L21.4677 26.4767L23.2502 29.5017H6.75021ZM25.5715 29.5017L23.489 25.9667L27.319 19.5017L33.2502 29.5017H25.5715Z" fill="white"/>
</svg>
